<svg width="28" height="27" viewBox="0 0 28 27" fill="none" xmlns="http://www.w3.org/2000/svg">
<g clip-path="url(#clip0_19_17)">
<path d="M14 0C6.26737 0 0 6.04413 0 13.5C0 20.9559 6.26737 27 14 27C21.7326 27 28 20.9553 28 13.5C28 6.04472 21.732 0 14 0ZM14.8475 19.5136V21.0763C14.8475 21.3201 14.6507 21.4975 14.3972 21.4975H13.317C13.0636 21.4975 12.8595 21.3201 12.8595 21.0763V19.6511C11.8652 19.6076 10.8624 19.4031 10.1032 19.1247C9.69198 18.9743 9.4629 18.5495 9.57196 18.1383L9.74803 17.4767C9.80957 17.2447 9.97041 17.0508 10.1903 16.9421C10.4103 16.8317 10.6686 16.8205 10.8995 16.9057C11.6227 17.1754 12.4769 17.3716 13.3889 17.3716C14.5502 17.3716 15.3452 16.9392 15.3452 16.1531C15.3452 15.4064 14.6933 14.9347 13.1848 14.4429C11.0043 13.7356 9.51103 12.7533 9.51103 10.8469C9.51103 9.11789 10.7801 7.76196 12.9496 7.34895V5.92369C12.9496 5.67988 13.1659 5.46133 13.4194 5.46133H14.4996C14.753 5.46133 14.9389 5.67988 14.9389 5.92369V7.21089C15.8875 7.25025 16.5723 7.38596 17.145 7.56573C17.5781 7.70203 17.834 8.13972 17.7201 8.56623L17.5653 9.15843C17.505 9.38402 17.3503 9.57555 17.1383 9.686C16.9262 9.79644 16.6758 9.81642 16.4468 9.74063C15.9265 9.5685 15.2477 9.41222 14.3875 9.41222C13.063 9.41222 12.6347 9.96271 12.6347 10.5132C12.6347 11.1618 13.3481 11.5742 15.0802 12.2034C17.505 13.0288 18.4792 14.1098 18.4792 15.8776C18.4786 17.6266 17.1974 19.1211 14.8475 19.5136Z" fill="#3B3B3B"/>
</g>
<defs>
<clipPath id="clip0_19_17">
<rect width="28" height="27" fill="white"/>
</clipPath>
</defs>
</svg>
