<svg width="103" height="276" viewBox="0 0 103 276" fill="none" xmlns="http://www.w3.org/2000/svg">
<g clip-path="url(#clip0_21_693)">
<path d="M35.6934 258.096C30.7697 258.096 26.7789 262.087 26.7789 267.01C26.7789 271.934 30.7697 275.925 35.6934 275.925C40.6172 275.925 44.608 271.933 44.608 267.01C44.608 262.087 40.6168 258.096 35.6934 258.096ZM36.2331 270.981V272.013C36.2331 272.174 36.1078 272.291 35.9464 272.291H35.2586C35.0972 272.291 34.9672 272.174 34.9672 272.013V271.072C34.3341 271.043 33.6955 270.908 33.2122 270.725C32.9503 270.625 32.8044 270.345 32.8739 270.073L32.986 269.636C33.0252 269.483 33.1276 269.355 33.2676 269.283C33.4077 269.21 33.5722 269.203 33.7192 269.259C34.1797 269.437 34.7236 269.567 35.3043 269.567C36.0438 269.567 36.55 269.281 36.55 268.762C36.55 268.269 36.1349 267.958 35.1744 267.633C33.7859 267.166 32.8351 266.517 32.8351 265.258C32.8351 264.117 33.6432 263.221 35.0246 262.949V262.007C35.0246 261.846 35.1623 261.702 35.3237 261.702H36.0116C36.1729 261.702 36.2913 261.846 36.2913 262.007V262.857C36.8953 262.883 37.3313 262.973 37.696 263.092C37.9718 263.182 38.1348 263.471 38.0622 263.752L37.9637 264.143C37.9253 264.292 37.8267 264.419 37.6917 264.492C37.5567 264.565 37.3973 264.578 37.2514 264.528C36.9201 264.414 36.488 264.311 35.9402 264.311C35.0968 264.311 34.8241 264.675 34.8241 265.038C34.8241 265.466 35.2783 265.739 36.3813 266.154C37.9253 266.699 38.5456 267.413 38.5456 268.58C38.5452 269.735 37.7294 270.722 36.2331 270.981Z" fill="#FFE600" fill-opacity="0.2"/>
</g>
<g clip-path="url(#clip1_21_693)">
<path d="M35.6934 -2C30.7697 -2 26.7789 1.99117 26.7789 6.91457C26.7789 11.838 30.7697 15.8291 35.6934 15.8291C40.6172 15.8291 44.608 11.8376 44.608 6.91457C44.608 1.99156 40.6168 -2 35.6934 -2ZM36.2331 10.8856V11.9175C36.2331 12.0785 36.1078 12.1957 35.9464 12.1957H35.2586C35.0972 12.1957 34.9672 12.0785 34.9672 11.9175V10.9764C34.3341 10.9476 33.6955 10.8126 33.2122 10.6288C32.9503 10.5294 32.8044 10.249 32.8739 9.97739L32.986 9.54057C33.0252 9.38733 33.1276 9.25931 33.2676 9.18754C33.4077 9.1146 33.5722 9.10723 33.7192 9.16349C34.1797 9.34155 34.7236 9.47113 35.3043 9.47113C36.0438 9.47113 36.55 9.1856 36.55 8.66653C36.55 8.17345 36.1349 7.86193 35.1744 7.53722C33.7859 7.07014 32.8351 6.4215 32.8351 5.16262C32.8351 4.0209 33.6432 3.12552 35.0246 2.8528V1.91164C35.0246 1.75065 35.1623 1.60633 35.3237 1.60633H36.0116C36.1729 1.60633 36.2913 1.75065 36.2913 1.91164V2.76163C36.8953 2.78762 37.3313 2.87724 37.696 2.99595C37.9718 3.08595 38.1348 3.37497 38.0622 3.65662L37.9637 4.04766C37.9253 4.19663 37.8267 4.3231 37.6917 4.39604C37.5567 4.46897 37.3973 4.48216 37.2514 4.43212C36.9201 4.31845 36.488 4.21526 35.9402 4.21526C35.0968 4.21526 34.8241 4.57876 34.8241 4.94226C34.8241 5.37055 35.2783 5.64289 36.3813 6.05838C37.9253 6.60344 38.5456 7.31726 38.5456 8.48458C38.5452 9.63949 37.7294 10.6264 36.2331 10.8856Z" fill="#FFE600" fill-opacity="0.2"/>
</g>
<g clip-path="url(#clip2_21_693)">
<path d="M35.6934 85.0482C30.7697 85.0482 26.7789 88.8046 26.7789 93.4384C26.7789 98.0722 30.7697 101.829 35.6934 101.829C40.6172 101.829 44.608 98.0718 44.608 93.4384C44.608 88.8049 40.6168 85.0482 35.6934 85.0482ZM36.2331 97.1758V98.147C36.2331 98.2985 36.1078 98.4088 35.9464 98.4088H35.2586C35.0972 98.4088 34.9672 98.2985 34.9672 98.147V97.2612C34.3341 97.2342 33.6955 97.1071 33.2122 96.9341C32.9503 96.8406 32.8044 96.5766 32.8739 96.321L32.986 95.9099C33.0252 95.7657 33.1276 95.6452 33.2676 95.5776C33.4077 95.509 33.5722 95.5021 33.7192 95.555C34.1797 95.7226 34.7236 95.8445 35.3043 95.8445C36.0438 95.8445 36.55 95.5758 36.55 95.0873C36.55 94.6232 36.1349 94.33 35.1744 94.0244C33.7859 93.5848 32.8351 92.9743 32.8351 91.7895C32.8351 90.7149 33.6432 89.8722 35.0246 89.6155V88.7297C35.0246 88.5782 35.1623 88.4424 35.3237 88.4424H36.0116C36.1729 88.4424 36.2913 88.5782 36.2913 88.7297V89.5297C36.8953 89.5542 37.3313 89.6385 37.696 89.7503C37.9718 89.835 38.1348 90.107 38.0622 90.3721L37.9637 90.7401C37.9253 90.8803 37.8267 90.9993 37.6917 91.068C37.5567 91.1366 37.3973 91.149 37.2514 91.1019C36.9201 90.995 36.488 90.8978 35.9402 90.8978C35.0968 90.8978 34.8241 91.24 34.8241 91.5821C34.8241 91.9852 35.2783 92.2415 36.3813 92.6325C37.9253 93.1455 38.5456 93.8174 38.5456 94.916C38.5452 96.003 37.7294 96.9319 36.2331 97.1758Z" fill="#FFE600" fill-opacity="0.2"/>
</g>
<g clip-path="url(#clip3_21_693)">
<path d="M35.6934 171.048C30.7697 171.048 26.7789 175.039 26.7789 179.962C26.7789 184.886 30.7697 188.877 35.6934 188.877C40.6172 188.877 44.608 184.885 44.608 179.962C44.608 175.039 40.6168 171.048 35.6934 171.048ZM36.2331 183.933V184.965C36.2331 185.126 36.1078 185.243 35.9464 185.243H35.2586C35.0972 185.243 34.9672 185.126 34.9672 184.965V184.024C34.3341 183.995 33.6955 183.86 33.2122 183.676C32.9503 183.577 32.8044 183.297 32.8739 183.025L32.986 182.588C33.0252 182.435 33.1276 182.307 33.2676 182.235C33.4077 182.162 33.5722 182.155 33.7192 182.211C34.1797 182.389 34.7236 182.519 35.3043 182.519C36.0438 182.519 36.55 182.233 36.55 181.714C36.55 181.221 36.1349 180.91 35.1744 180.585C33.7859 180.118 32.8351 179.469 32.8351 178.21C32.8351 177.069 33.6432 176.173 35.0246 175.9V174.959C35.0246 174.798 35.1623 174.654 35.3237 174.654H36.0116C36.1729 174.654 36.2913 174.798 36.2913 174.959V175.809C36.8953 175.835 37.3313 175.925 37.696 176.044C37.9718 176.134 38.1348 176.423 38.0622 176.704L37.9637 177.095C37.9253 177.244 37.8267 177.371 37.6917 177.444C37.5567 177.517 37.3973 177.53 37.2514 177.48C36.9201 177.366 36.488 177.263 35.9402 177.263C35.0968 177.263 34.8241 177.626 34.8241 177.99C34.8241 178.418 35.2783 178.69 36.3813 179.106C37.9253 179.651 38.5456 180.365 38.5456 181.532C38.5452 182.687 37.7294 183.674 36.2331 183.933Z" fill="#FFE600" fill-opacity="0.2"/>
</g>
<g clip-path="url(#clip4_21_693)">
<path d="M35.6934 27.3656C30.7697 27.3656 26.7789 31.122 26.7789 35.7558C26.7789 40.3896 30.7697 44.146 35.6934 44.146C40.6172 44.146 44.608 40.3892 44.608 35.7558C44.608 31.1224 40.6168 27.3656 35.6934 27.3656ZM36.2331 39.4932V40.4645C36.2331 40.616 36.1078 40.7262 35.9464 40.7262H35.2586C35.0972 40.7262 34.9672 40.616 34.9672 40.4645V39.5787C34.3341 39.5516 33.6955 39.4246 33.2122 39.2515C32.9503 39.158 32.8044 38.8941 32.8739 38.6385L32.986 38.2273C33.0252 38.0831 33.1276 37.9626 33.2676 37.8951C33.4077 37.8264 33.5722 37.8195 33.7192 37.8724C34.1797 38.04 34.7236 38.162 35.3043 38.162C36.0438 38.162 36.55 37.8933 36.55 37.4047C36.55 36.9406 36.1349 36.6474 35.1744 36.3418C33.7859 35.9022 32.8351 35.2917 32.8351 34.1069C32.8351 33.0324 33.6432 32.1897 35.0246 31.933V31.0472C35.0246 30.8957 35.1623 30.7598 35.3237 30.7598H36.0116C36.1729 30.7598 36.2913 30.8957 36.2913 31.0472V31.8472C36.8953 31.8716 37.3313 31.956 37.696 32.0677C37.9718 32.1524 38.1348 32.4244 38.0622 32.6895L37.9637 33.0575C37.9253 33.1978 37.8267 33.3168 37.6917 33.3854C37.5567 33.4541 37.3973 33.4665 37.2514 33.4194C36.9201 33.3124 36.488 33.2153 35.9402 33.2153C35.0968 33.2153 34.8241 33.5574 34.8241 33.8995C34.8241 34.3026 35.2783 34.5589 36.3813 34.95C37.9253 35.463 38.5456 36.1348 38.5456 37.2335C38.5452 38.3204 37.7294 39.2493 36.2331 39.4932Z" fill="#FFE600" fill-opacity="0.2"/>
</g>
<g clip-path="url(#clip5_21_693)">
<path d="M35.6934 113.365C30.7697 113.365 26.7789 117.356 26.7789 122.28C26.7789 127.203 30.7697 131.194 35.6934 131.194C40.6172 131.194 44.608 127.203 44.608 122.28C44.608 117.357 40.6168 113.365 35.6934 113.365ZM36.2331 126.251V127.283C36.2331 127.444 36.1078 127.561 35.9464 127.561H35.2586C35.0972 127.561 34.9672 127.444 34.9672 127.283V126.341C34.3341 126.313 33.6955 126.178 33.2122 125.994C32.9503 125.894 32.8044 125.614 32.8739 125.342L32.986 124.906C33.0252 124.752 33.1276 124.624 33.2676 124.553C33.4077 124.48 33.5722 124.472 33.7192 124.529C34.1797 124.707 34.7236 124.836 35.3043 124.836C36.0438 124.836 36.55 124.551 36.55 124.032C36.55 123.539 36.1349 123.227 35.1744 122.902C33.7859 122.435 32.8351 121.787 32.8351 120.528C32.8351 119.386 33.6432 118.491 35.0246 118.218V117.277C35.0246 117.116 35.1623 116.971 35.3237 116.971H36.0116C36.1729 116.971 36.2913 117.116 36.2913 117.277V118.127C36.8953 118.153 37.3313 118.242 37.696 118.361C37.9718 118.451 38.1348 118.74 38.0622 119.022L37.9637 119.413C37.9253 119.562 37.8267 119.688 37.6917 119.761C37.5567 119.834 37.3973 119.847 37.2514 119.797C36.9201 119.684 36.488 119.58 35.9402 119.58C35.0968 119.58 34.8241 119.944 34.8241 120.307C34.8241 120.736 35.2783 121.008 36.3813 121.423C37.9253 121.968 38.5456 122.682 38.5456 123.85C38.5452 125.005 37.7294 125.991 36.2331 126.251Z" fill="#FFE600" fill-opacity="0.2"/>
</g>
<g clip-path="url(#clip6_21_693)">
<path d="M35.6934 200.413C30.7697 200.413 26.7789 204.404 26.7789 209.328C26.7789 214.251 30.7697 218.242 35.6934 218.242C40.6172 218.242 44.608 214.251 44.608 209.328C44.608 204.405 40.6168 200.413 35.6934 200.413ZM36.2331 213.299V214.331C36.2331 214.492 36.1078 214.609 35.9464 214.609H35.2586C35.0972 214.609 34.9672 214.492 34.9672 214.331V213.39C34.3341 213.361 33.6955 213.226 33.2122 213.042C32.9503 212.943 32.8044 212.662 32.8739 212.391L32.986 211.954C33.0252 211.801 33.1276 211.673 33.2676 211.601C33.4077 211.528 33.5722 211.52 33.7192 211.577C34.1797 211.755 34.7236 211.884 35.3043 211.884C36.0438 211.884 36.55 211.599 36.55 211.08C36.55 210.587 36.1349 210.275 35.1744 209.95C33.7859 209.483 32.8351 208.835 32.8351 207.576C32.8351 206.434 33.6432 205.539 35.0246 205.266V204.325C35.0246 204.164 35.1623 204.02 35.3237 204.02H36.0116C36.1729 204.02 36.2913 204.164 36.2913 204.325V205.175C36.8953 205.201 37.3313 205.29 37.696 205.409C37.9718 205.499 38.1348 205.788 38.0622 206.07L37.9637 206.461C37.9253 206.61 37.8267 206.736 37.6917 206.809C37.5567 206.882 37.3973 206.895 37.2514 206.845C36.9201 206.732 36.488 206.628 35.9402 206.628C35.0968 206.628 34.8241 206.992 34.8241 207.355C34.8241 207.784 35.2783 208.056 36.3813 208.472C37.9253 209.017 38.5456 209.73 38.5456 210.898C38.5452 212.053 37.7294 213.04 36.2331 213.299Z" fill="#FFE600" fill-opacity="0.2"/>
</g>
<g clip-path="url(#clip7_21_693)">
<path d="M35.6934 55.6826C30.7697 55.6826 26.7789 59.6737 26.7789 64.5971C26.7789 69.5205 30.7697 73.5117 35.6934 73.5117C40.6172 73.5117 44.608 69.5201 44.608 64.5971C44.608 59.6741 40.6168 55.6826 35.6934 55.6826ZM36.2331 68.5681V69.6001C36.2331 69.7611 36.1078 69.8782 35.9464 69.8782H35.2586C35.0972 69.8782 34.9672 69.7611 34.9672 69.6001V68.6589C34.3341 68.6302 33.6955 68.4952 33.2122 68.3113C32.9503 68.212 32.8044 67.9315 32.8739 67.66L32.986 67.2231C33.0252 67.0699 33.1276 66.9419 33.2676 66.8701C33.4077 66.7972 33.5722 66.7898 33.7192 66.846C34.1797 67.0241 34.7236 67.1537 35.3043 67.1537C36.0438 67.1537 36.55 66.8682 36.55 66.3491C36.55 65.856 36.1349 65.5445 35.1744 65.2198C33.7859 64.7527 32.8351 64.1041 32.8351 62.8452C32.8351 61.7035 33.6432 60.8081 35.0246 60.5354V59.5942C35.0246 59.4332 35.1623 59.2889 35.3237 59.2889H36.0116C36.1729 59.2889 36.2913 59.4332 36.2913 59.5942V60.4442C36.8953 60.4702 37.3313 60.5598 37.696 60.6785C37.9718 60.7685 38.1348 61.0575 38.0622 61.3392L37.9637 61.7302C37.9253 61.8792 37.8267 62.0057 37.6917 62.0786C37.5567 62.1515 37.3973 62.1647 37.2514 62.1147C36.9201 62.001 36.488 61.8978 35.9402 61.8978C35.0968 61.8978 34.8241 62.2613 34.8241 62.6248C34.8241 63.0531 35.2783 63.3254 36.3813 63.7409C37.9253 64.286 38.5456 64.9998 38.5456 66.1671C38.5452 67.3221 37.7294 68.309 36.2331 68.5681Z" fill="#FFE600" fill-opacity="0.2"/>
</g>
<g clip-path="url(#clip8_21_693)">
<path d="M35.6934 142.731C30.7697 142.731 26.7789 146.722 26.7789 151.645C26.7789 156.569 30.7697 160.56 35.6934 160.56C40.6172 160.56 44.608 156.568 44.608 151.645C44.608 146.722 40.6168 142.731 35.6934 142.731ZM36.2331 155.616V156.648C36.2331 156.809 36.1078 156.926 35.9464 156.926H35.2586C35.0972 156.926 34.9672 156.809 34.9672 156.648V155.707C34.3341 155.678 33.6955 155.543 33.2122 155.359C32.9503 155.26 32.8044 154.98 32.8739 154.708L32.986 154.271C33.0252 154.118 33.1276 153.99 33.2676 153.918C33.4077 153.845 33.5722 153.838 33.7192 153.894C34.1797 154.072 34.7236 154.202 35.3043 154.202C36.0438 154.202 36.55 153.916 36.55 153.397C36.55 152.904 36.1349 152.593 35.1744 152.268C33.7859 151.801 32.8351 151.152 32.8351 149.893C32.8351 148.752 33.6432 147.856 35.0246 147.584V146.642C35.0246 146.481 35.1623 146.337 35.3237 146.337H36.0116C36.1729 146.337 36.2913 146.481 36.2913 146.642V147.492C36.8953 147.518 37.3313 147.608 37.696 147.727C37.9718 147.817 38.1348 148.106 38.0622 148.387L37.9637 148.778C37.9253 148.927 37.8267 149.054 37.6917 149.127C37.5567 149.2 37.3973 149.213 37.2514 149.163C36.9201 149.049 36.488 148.946 35.9402 148.946C35.0968 148.946 34.8241 149.309 34.8241 149.673C34.8241 150.101 35.2783 150.374 36.3813 150.789C37.9253 151.334 38.5456 152.048 38.5456 153.215C38.5452 154.37 37.7294 155.357 36.2331 155.616Z" fill="#FFE600" fill-opacity="0.2"/>
</g>
<g clip-path="url(#clip9_21_693)">
<path d="M35.6934 228.73C30.7697 228.73 26.7789 232.956 26.7789 238.169C26.7789 243.382 30.7697 247.608 35.6934 247.608C40.6172 247.608 44.608 243.382 44.608 238.169C44.608 232.956 40.6168 228.73 35.6934 228.73ZM36.2331 242.374V243.466C36.2331 243.637 36.1078 243.761 35.9464 243.761H35.2586C35.0972 243.761 34.9672 243.637 34.9672 243.466V242.47C34.3341 242.439 33.6955 242.296 33.2122 242.102C32.9503 241.997 32.8044 241.7 32.8739 241.412L32.986 240.95C33.0252 240.787 33.1276 240.652 33.2676 240.576C33.4077 240.499 33.5722 240.491 33.7192 240.55C34.1797 240.739 34.7236 240.876 35.3043 240.876C36.0438 240.876 36.55 240.574 36.55 240.024C36.55 239.502 36.1349 239.172 35.1744 238.828C33.7859 238.334 32.8351 237.647 32.8351 236.314C32.8351 235.105 33.6432 234.157 35.0246 233.868V232.872C35.0246 232.701 35.1623 232.549 35.3237 232.549H36.0116C36.1729 232.549 36.2913 232.701 36.2913 232.872V233.772C36.8953 233.799 37.3313 233.894 37.696 234.02C37.9718 234.115 38.1348 234.421 38.0622 234.719L37.9637 235.134C37.9253 235.291 37.8267 235.425 37.6917 235.502C37.5567 235.58 37.3973 235.594 37.2514 235.541C36.9201 235.42 36.488 235.311 35.9402 235.311C35.0968 235.311 34.8241 235.696 34.8241 236.081C34.8241 236.534 35.2783 236.823 36.3813 237.263C37.9253 237.84 38.5456 238.595 38.5456 239.831C38.5452 241.054 37.7294 242.099 36.2331 242.374Z" fill="#FFE600" fill-opacity="0.2"/>
</g>
<g clip-path="url(#clip10_21_693)">
<path d="M64.5347 258.096C59.9006 258.096 56.1445 262.087 56.1445 267.01C56.1445 271.934 59.9006 275.925 64.5347 275.925C69.1689 275.925 72.9249 271.933 72.9249 267.01C72.9249 262.087 69.1685 258.096 64.5347 258.096ZM65.0426 270.981V272.013C65.0426 272.174 64.9247 272.291 64.7728 272.291H64.1254C63.9735 272.291 63.8512 272.174 63.8512 272.013V271.072C63.2553 271.043 62.6543 270.908 62.1994 270.725C61.9529 270.625 61.8156 270.345 61.881 270.073L61.9865 269.636C62.0234 269.483 62.1198 269.355 62.2516 269.283C62.3834 269.21 62.5382 269.203 62.6766 269.259C63.11 269.437 63.6219 269.567 64.1685 269.567C64.8644 269.567 65.3409 269.281 65.3409 268.762C65.3409 268.269 64.9502 267.958 64.0462 267.633C62.7394 267.166 61.8445 266.517 61.8445 265.258C61.8445 264.117 62.605 263.221 63.9052 262.949V262.007C63.9052 261.846 64.0349 261.702 64.1868 261.702H64.8341C64.986 261.702 65.0974 261.846 65.0974 262.007V262.857C65.6659 262.883 66.0763 262.973 66.4195 263.092C66.6791 263.182 66.8324 263.471 66.7642 263.752L66.6714 264.143C66.6353 264.292 66.5425 264.419 66.4155 264.492C66.2884 264.565 66.1383 264.578 66.0011 264.528C65.6892 264.414 65.2825 264.311 64.7669 264.311C63.9732 264.311 63.7165 264.675 63.7165 265.038C63.7165 265.466 64.144 265.739 65.1821 266.154C66.6353 266.699 67.2191 267.413 67.2191 268.58C67.2187 269.735 66.4509 270.722 65.0426 270.981Z" fill="#FFE600" fill-opacity="0.2"/>
</g>
<g clip-path="url(#clip11_21_693)">
<path d="M64.5347 -2C59.9006 -2 56.1445 1.99117 56.1445 6.91457C56.1445 11.838 59.9006 15.8291 64.5347 15.8291C69.1689 15.8291 72.9249 11.8376 72.9249 6.91457C72.9249 1.99156 69.1685 -2 64.5347 -2ZM65.0426 10.8856V11.9175C65.0426 12.0785 64.9247 12.1957 64.7728 12.1957H64.1254C63.9735 12.1957 63.8512 12.0785 63.8512 11.9175V10.9764C63.2553 10.9476 62.6543 10.8126 62.1994 10.6288C61.9529 10.5294 61.8156 10.249 61.881 9.97739L61.9865 9.54057C62.0234 9.38733 62.1198 9.25931 62.2516 9.18754C62.3834 9.1146 62.5382 9.10723 62.6766 9.16349C63.11 9.34155 63.6219 9.47113 64.1685 9.47113C64.8644 9.47113 65.3409 9.1856 65.3409 8.66653C65.3409 8.17345 64.9502 7.86193 64.0462 7.53722C62.7394 7.07014 61.8445 6.4215 61.8445 5.16262C61.8445 4.0209 62.605 3.12552 63.9052 2.8528V1.91164C63.9052 1.75065 64.0349 1.60633 64.1868 1.60633H64.8341C64.986 1.60633 65.0974 1.75065 65.0974 1.91164V2.76163C65.6659 2.78762 66.0763 2.87724 66.4195 2.99595C66.6791 3.08595 66.8324 3.37497 66.7642 3.65662L66.6714 4.04766C66.6353 4.19663 66.5425 4.3231 66.4155 4.39604C66.2884 4.46897 66.1383 4.48216 66.0011 4.43212C65.6892 4.31845 65.2825 4.21526 64.7669 4.21526C63.9732 4.21526 63.7165 4.57876 63.7165 4.94226C63.7165 5.37055 64.144 5.64289 65.1821 6.05838C66.6353 6.60344 67.2191 7.31726 67.2191 8.48458C67.2187 9.63949 66.4509 10.6264 65.0426 10.8856Z" fill="#FFE600" fill-opacity="0.2"/>
</g>
<g clip-path="url(#clip12_21_693)">
<path d="M64.5347 85.0482C59.9006 85.0482 56.1445 88.8046 56.1445 93.4384C56.1445 98.0722 59.9006 101.829 64.5347 101.829C69.1689 101.829 72.9249 98.0718 72.9249 93.4384C72.9249 88.8049 69.1685 85.0482 64.5347 85.0482ZM65.0426 97.1758V98.147C65.0426 98.2985 64.9247 98.4088 64.7728 98.4088H64.1254C63.9735 98.4088 63.8512 98.2985 63.8512 98.147V97.2612C63.2553 97.2342 62.6543 97.1071 62.1994 96.9341C61.9529 96.8406 61.8156 96.5766 61.881 96.321L61.9865 95.9099C62.0234 95.7657 62.1198 95.6452 62.2516 95.5776C62.3834 95.509 62.5382 95.5021 62.6766 95.555C63.11 95.7226 63.6219 95.8445 64.1685 95.8445C64.8644 95.8445 65.3409 95.5758 65.3409 95.0873C65.3409 94.6232 64.9502 94.33 64.0462 94.0244C62.7394 93.5848 61.8445 92.9743 61.8445 91.7895C61.8445 90.7149 62.605 89.8722 63.9052 89.6155V88.7297C63.9052 88.5782 64.0349 88.4424 64.1868 88.4424H64.8341C64.986 88.4424 65.0974 88.5782 65.0974 88.7297V89.5297C65.6659 89.5542 66.0763 89.6385 66.4195 89.7503C66.6791 89.835 66.8324 90.107 66.7642 90.3721L66.6714 90.7401C66.6353 90.8803 66.5425 90.9993 66.4155 91.068C66.2884 91.1366 66.1383 91.149 66.0011 91.1019C65.6892 90.995 65.2825 90.8978 64.7669 90.8978C63.9732 90.8978 63.7165 91.24 63.7165 91.5821C63.7165 91.9852 64.144 92.2415 65.1821 92.6325C66.6353 93.1455 67.2191 93.8174 67.2191 94.916C67.2187 96.003 66.4509 96.9319 65.0426 97.1758Z" fill="#FFE600" fill-opacity="0.2"/>
</g>
<g clip-path="url(#clip13_21_693)">
<path d="M64.5347 171.048C59.9006 171.048 56.1445 175.039 56.1445 179.962C56.1445 184.886 59.9006 188.877 64.5347 188.877C69.1689 188.877 72.9249 184.885 72.9249 179.962C72.9249 175.039 69.1685 171.048 64.5347 171.048ZM65.0426 183.933V184.965C65.0426 185.126 64.9247 185.243 64.7728 185.243H64.1254C63.9735 185.243 63.8512 185.126 63.8512 184.965V184.024C63.2553 183.995 62.6543 183.86 62.1994 183.676C61.9529 183.577 61.8156 183.297 61.881 183.025L61.9865 182.588C62.0234 182.435 62.1198 182.307 62.2516 182.235C62.3834 182.162 62.5382 182.155 62.6766 182.211C63.11 182.389 63.6219 182.519 64.1685 182.519C64.8644 182.519 65.3409 182.233 65.3409 181.714C65.3409 181.221 64.9502 180.91 64.0462 180.585C62.7394 180.118 61.8445 179.469 61.8445 178.21C61.8445 177.069 62.605 176.173 63.9052 175.9V174.959C63.9052 174.798 64.0349 174.654 64.1868 174.654H64.8341C64.986 174.654 65.0974 174.798 65.0974 174.959V175.809C65.6659 175.835 66.0763 175.925 66.4195 176.044C66.6791 176.134 66.8324 176.423 66.7642 176.704L66.6714 177.095C66.6353 177.244 66.5425 177.371 66.4155 177.444C66.2884 177.517 66.1383 177.53 66.0011 177.48C65.6892 177.366 65.2825 177.263 64.7669 177.263C63.9732 177.263 63.7165 177.626 63.7165 177.99C63.7165 178.418 64.144 178.69 65.1821 179.106C66.6353 179.651 67.2191 180.365 67.2191 181.532C67.2187 182.687 66.4509 183.674 65.0426 183.933Z" fill="#FFE600" fill-opacity="0.2"/>
</g>
<g clip-path="url(#clip14_21_693)">
<path d="M64.5347 27.3656C59.9006 27.3656 56.1445 31.122 56.1445 35.7558C56.1445 40.3896 59.9006 44.146 64.5347 44.146C69.1689 44.146 72.9249 40.3892 72.9249 35.7558C72.9249 31.1224 69.1685 27.3656 64.5347 27.3656ZM65.0426 39.4932V40.4645C65.0426 40.616 64.9247 40.7262 64.7728 40.7262H64.1254C63.9735 40.7262 63.8512 40.616 63.8512 40.4645V39.5787C63.2553 39.5516 62.6543 39.4246 62.1994 39.2515C61.9529 39.158 61.8156 38.8941 61.881 38.6385L61.9865 38.2273C62.0234 38.0831 62.1198 37.9626 62.2516 37.8951C62.3834 37.8264 62.5382 37.8195 62.6766 37.8724C63.11 38.04 63.6219 38.162 64.1685 38.162C64.8644 38.162 65.3409 37.8933 65.3409 37.4047C65.3409 36.9406 64.9502 36.6474 64.0462 36.3418C62.7394 35.9022 61.8445 35.2917 61.8445 34.1069C61.8445 33.0324 62.605 32.1897 63.9052 31.933V31.0472C63.9052 30.8957 64.0349 30.7598 64.1868 30.7598H64.8341C64.986 30.7598 65.0974 30.8957 65.0974 31.0472V31.8472C65.6659 31.8716 66.0763 31.956 66.4195 32.0677C66.6791 32.1524 66.8324 32.4244 66.7642 32.6895L66.6714 33.0575C66.6353 33.1978 66.5425 33.3168 66.4155 33.3854C66.2884 33.4541 66.1383 33.4665 66.0011 33.4194C65.6892 33.3124 65.2825 33.2153 64.7669 33.2153C63.9732 33.2153 63.7165 33.5574 63.7165 33.8995C63.7165 34.3026 64.144 34.5589 65.1821 34.95C66.6353 35.463 67.2191 36.1348 67.2191 37.2335C67.2187 38.3204 66.4509 39.2493 65.0426 39.4932Z" fill="#FFE600" fill-opacity="0.2"/>
</g>
<g clip-path="url(#clip15_21_693)">
<path d="M64.5347 113.365C59.9006 113.365 56.1445 117.356 56.1445 122.28C56.1445 127.203 59.9006 131.194 64.5347 131.194C69.1689 131.194 72.9249 127.203 72.9249 122.28C72.9249 117.357 69.1685 113.365 64.5347 113.365ZM65.0426 126.251V127.283C65.0426 127.444 64.9247 127.561 64.7728 127.561H64.1254C63.9735 127.561 63.8512 127.444 63.8512 127.283V126.341C63.2553 126.313 62.6543 126.178 62.1994 125.994C61.9529 125.894 61.8156 125.614 61.881 125.342L61.9865 124.906C62.0234 124.752 62.1198 124.624 62.2516 124.553C62.3834 124.48 62.5382 124.472 62.6766 124.529C63.11 124.707 63.6219 124.836 64.1685 124.836C64.8644 124.836 65.3409 124.551 65.3409 124.032C65.3409 123.539 64.9502 123.227 64.0462 122.902C62.7394 122.435 61.8445 121.787 61.8445 120.528C61.8445 119.386 62.605 118.491 63.9052 118.218V117.277C63.9052 117.116 64.0349 116.971 64.1868 116.971H64.8341C64.986 116.971 65.0974 117.116 65.0974 117.277V118.127C65.6659 118.153 66.0763 118.242 66.4195 118.361C66.6791 118.451 66.8324 118.74 66.7642 119.022L66.6714 119.413C66.6353 119.562 66.5425 119.688 66.4155 119.761C66.2884 119.834 66.1383 119.847 66.0011 119.797C65.6892 119.684 65.2825 119.58 64.7669 119.58C63.9732 119.58 63.7165 119.944 63.7165 120.307C63.7165 120.736 64.144 121.008 65.1821 121.423C66.6353 121.968 67.2191 122.682 67.2191 123.85C67.2187 125.005 66.4509 125.991 65.0426 126.251Z" fill="#FFE600" fill-opacity="0.2"/>
</g>
<g clip-path="url(#clip16_21_693)">
<path d="M64.5347 200.413C59.9006 200.413 56.1445 204.404 56.1445 209.328C56.1445 214.251 59.9006 218.242 64.5347 218.242C69.1689 218.242 72.9249 214.251 72.9249 209.328C72.9249 204.405 69.1685 200.413 64.5347 200.413ZM65.0426 213.299V214.331C65.0426 214.492 64.9247 214.609 64.7728 214.609H64.1254C63.9735 214.609 63.8512 214.492 63.8512 214.331V213.39C63.2553 213.361 62.6543 213.226 62.1994 213.042C61.9529 212.943 61.8156 212.662 61.881 212.391L61.9865 211.954C62.0234 211.801 62.1198 211.673 62.2516 211.601C62.3834 211.528 62.5382 211.52 62.6766 211.577C63.11 211.755 63.6219 211.884 64.1685 211.884C64.8644 211.884 65.3409 211.599 65.3409 211.08C65.3409 210.587 64.9502 210.275 64.0462 209.95C62.7394 209.483 61.8445 208.835 61.8445 207.576C61.8445 206.434 62.605 205.539 63.9052 205.266V204.325C63.9052 204.164 64.0349 204.02 64.1868 204.02H64.8341C64.986 204.02 65.0974 204.164 65.0974 204.325V205.175C65.6659 205.201 66.0763 205.29 66.4195 205.409C66.6791 205.499 66.8324 205.788 66.7642 206.07L66.6714 206.461C66.6353 206.61 66.5425 206.736 66.4155 206.809C66.2884 206.882 66.1383 206.895 66.0011 206.845C65.6892 206.732 65.2825 206.628 64.7669 206.628C63.9732 206.628 63.7165 206.992 63.7165 207.355C63.7165 207.784 64.144 208.056 65.1821 208.472C66.6353 209.017 67.2191 209.73 67.2191 210.898C67.2187 212.053 66.4509 213.04 65.0426 213.299Z" fill="#FFE600" fill-opacity="0.2"/>
</g>
<g clip-path="url(#clip17_21_693)">
<path d="M64.5347 55.6826C59.9006 55.6826 56.1445 59.6737 56.1445 64.5971C56.1445 69.5205 59.9006 73.5117 64.5347 73.5117C69.1689 73.5117 72.9249 69.5201 72.9249 64.5971C72.9249 59.6741 69.1685 55.6826 64.5347 55.6826ZM65.0426 68.5681V69.6001C65.0426 69.7611 64.9247 69.8782 64.7728 69.8782H64.1254C63.9735 69.8782 63.8512 69.7611 63.8512 69.6001V68.6589C63.2553 68.6302 62.6543 68.4952 62.1994 68.3113C61.9529 68.212 61.8156 67.9315 61.881 67.66L61.9865 67.2231C62.0234 67.0699 62.1198 66.9419 62.2516 66.8701C62.3834 66.7972 62.5382 66.7898 62.6766 66.846C63.11 67.0241 63.6219 67.1537 64.1685 67.1537C64.8644 67.1537 65.3409 66.8682 65.3409 66.3491C65.3409 65.856 64.9502 65.5445 64.0462 65.2198C62.7394 64.7527 61.8445 64.1041 61.8445 62.8452C61.8445 61.7035 62.605 60.8081 63.9052 60.5354V59.5942C63.9052 59.4332 64.0349 59.2889 64.1868 59.2889H64.8341C64.986 59.2889 65.0974 59.4332 65.0974 59.5942V60.4442C65.6659 60.4702 66.0763 60.5598 66.4195 60.6785C66.6791 60.7685 66.8324 61.0575 66.7642 61.3392L66.6714 61.7302C66.6353 61.8792 66.5425 62.0057 66.4155 62.0786C66.2884 62.1515 66.1383 62.1647 66.0011 62.1147C65.6892 62.001 65.2825 61.8978 64.7669 61.8978C63.9732 61.8978 63.7165 62.2613 63.7165 62.6248C63.7165 63.0531 64.144 63.3254 65.1821 63.7409C66.6353 64.286 67.2191 64.9998 67.2191 66.1671C67.2187 67.3221 66.4509 68.309 65.0426 68.5681Z" fill="#FFE600" fill-opacity="0.2"/>
</g>
<g clip-path="url(#clip18_21_693)">
<path d="M64.5347 142.731C59.9006 142.731 56.1445 146.722 56.1445 151.645C56.1445 156.569 59.9006 160.56 64.5347 160.56C69.1689 160.56 72.9249 156.568 72.9249 151.645C72.9249 146.722 69.1685 142.731 64.5347 142.731ZM65.0426 155.616V156.648C65.0426 156.809 64.9247 156.926 64.7728 156.926H64.1254C63.9735 156.926 63.8512 156.809 63.8512 156.648V155.707C63.2553 155.678 62.6543 155.543 62.1994 155.359C61.9529 155.26 61.8156 154.98 61.881 154.708L61.9865 154.271C62.0234 154.118 62.1198 153.99 62.2516 153.918C62.3834 153.845 62.5382 153.838 62.6766 153.894C63.11 154.072 63.6219 154.202 64.1685 154.202C64.8644 154.202 65.3409 153.916 65.3409 153.397C65.3409 152.904 64.9502 152.593 64.0462 152.268C62.7394 151.801 61.8445 151.152 61.8445 149.893C61.8445 148.752 62.605 147.856 63.9052 147.584V146.642C63.9052 146.481 64.0349 146.337 64.1868 146.337H64.8341C64.986 146.337 65.0974 146.481 65.0974 146.642V147.492C65.6659 147.518 66.0763 147.608 66.4195 147.727C66.6791 147.817 66.8324 148.106 66.7642 148.387L66.6714 148.778C66.6353 148.927 66.5425 149.054 66.4155 149.127C66.2884 149.2 66.1383 149.213 66.0011 149.163C65.6892 149.049 65.2825 148.946 64.7669 148.946C63.9732 148.946 63.7165 149.309 63.7165 149.673C63.7165 150.101 64.144 150.374 65.1821 150.789C66.6353 151.334 67.2191 152.048 67.2191 153.215C67.2187 154.37 66.4509 155.357 65.0426 155.616Z" fill="#FFE600" fill-opacity="0.2"/>
</g>
<g clip-path="url(#clip19_21_693)">
<path d="M64.5347 228.73C59.9006 228.73 56.1445 232.956 56.1445 238.169C56.1445 243.382 59.9006 247.608 64.5347 247.608C69.1689 247.608 72.9249 243.382 72.9249 238.169C72.9249 232.956 69.1685 228.73 64.5347 228.73ZM65.0426 242.374V243.466C65.0426 243.637 64.9247 243.761 64.7728 243.761H64.1254C63.9735 243.761 63.8512 243.637 63.8512 243.466V242.47C63.2553 242.439 62.6543 242.296 62.1994 242.102C61.9529 241.997 61.8156 241.7 61.881 241.412L61.9865 240.95C62.0234 240.787 62.1198 240.652 62.2516 240.576C62.3834 240.499 62.5382 240.491 62.6766 240.55C63.11 240.739 63.6219 240.876 64.1685 240.876C64.8644 240.876 65.3409 240.574 65.3409 240.024C65.3409 239.502 64.9502 239.172 64.0462 238.828C62.7394 238.334 61.8445 237.647 61.8445 236.314C61.8445 235.105 62.605 234.157 63.9052 233.868V232.872C63.9052 232.701 64.0349 232.549 64.1868 232.549H64.8341C64.986 232.549 65.0974 232.701 65.0974 232.872V233.772C65.6659 233.799 66.0763 233.894 66.4195 234.02C66.6791 234.115 66.8324 234.421 66.7642 234.719L66.6714 235.134C66.6353 235.291 66.5425 235.425 66.4155 235.502C66.2884 235.58 66.1383 235.594 66.0011 235.541C65.6892 235.42 65.2825 235.311 64.7669 235.311C63.9732 235.311 63.7165 235.696 63.7165 236.081C63.7165 236.534 64.144 236.823 65.1821 237.263C66.6353 237.84 67.2191 238.595 67.2191 239.831C67.2187 241.054 66.4509 242.099 65.0426 242.374Z" fill="#FFE600" fill-opacity="0.2"/>
</g>
<g clip-path="url(#clip20_21_693)">
<path d="M93.376 258.096C88.4522 258.096 84.4614 262.087 84.4614 267.01C84.4614 271.934 88.4522 275.925 93.376 275.925C98.2998 275.925 102.291 271.933 102.291 267.01C102.291 262.087 98.2994 258.096 93.376 258.096ZM93.9156 270.981V272.013C93.9156 272.174 93.7903 272.291 93.6289 272.291H92.9411C92.7797 272.291 92.6498 272.174 92.6498 272.013V271.072C92.0166 271.043 91.3781 270.908 90.8947 270.725C90.6328 270.625 90.487 270.345 90.5564 270.073L90.6685 269.636C90.7077 269.483 90.8101 269.355 90.9502 269.283C91.0902 269.21 91.2547 269.203 91.4017 269.259C91.8622 269.437 92.4061 269.567 92.9869 269.567C93.7263 269.567 94.2326 269.281 94.2326 268.762C94.2326 268.269 93.8175 267.958 92.8569 267.633C91.4685 267.166 90.5176 266.517 90.5176 265.258C90.5176 264.117 91.3257 263.221 92.7072 262.949V262.007C92.7072 261.846 92.8449 261.702 93.0063 261.702H93.6941C93.8555 261.702 93.9738 261.846 93.9738 262.007V262.857C94.5779 262.883 95.0139 262.973 95.3786 263.092C95.6544 263.182 95.8173 263.471 95.7448 263.752L95.6462 264.143C95.6078 264.292 95.5093 264.419 95.3743 264.492C95.2393 264.565 95.0799 264.578 94.934 264.528C94.6027 264.414 94.1705 264.311 93.6227 264.311C92.7793 264.311 92.5066 264.675 92.5066 265.038C92.5066 265.466 92.9609 265.739 94.0638 266.154C95.6078 266.699 96.2282 267.413 96.2282 268.58C96.2278 269.735 95.4119 270.722 93.9156 270.981Z" fill="#FFE600" fill-opacity="0.2"/>
</g>
<g clip-path="url(#clip21_21_693)">
<path d="M93.376 -2C88.4522 -2 84.4614 1.99117 84.4614 6.91457C84.4614 11.838 88.4522 15.8291 93.376 15.8291C98.2998 15.8291 102.291 11.8376 102.291 6.91457C102.291 1.99156 98.2994 -2 93.376 -2ZM93.9156 10.8856V11.9175C93.9156 12.0785 93.7903 12.1957 93.6289 12.1957H92.9411C92.7797 12.1957 92.6498 12.0785 92.6498 11.9175V10.9764C92.0166 10.9476 91.3781 10.8126 90.8947 10.6288C90.6328 10.5294 90.487 10.249 90.5564 9.97739L90.6685 9.54057C90.7077 9.38733 90.8101 9.25931 90.9502 9.18754C91.0902 9.1146 91.2547 9.10723 91.4017 9.16349C91.8622 9.34155 92.4061 9.47113 92.9869 9.47113C93.7263 9.47113 94.2326 9.1856 94.2326 8.66653C94.2326 8.17345 93.8175 7.86193 92.8569 7.53722C91.4685 7.07014 90.5176 6.4215 90.5176 5.16262C90.5176 4.0209 91.3257 3.12552 92.7072 2.8528V1.91164C92.7072 1.75065 92.8449 1.60633 93.0063 1.60633H93.6941C93.8555 1.60633 93.9738 1.75065 93.9738 1.91164V2.76163C94.5779 2.78762 95.0139 2.87724 95.3786 2.99595C95.6544 3.08595 95.8173 3.37497 95.7448 3.65662L95.6462 4.04766C95.6078 4.19663 95.5093 4.3231 95.3743 4.39604C95.2393 4.46897 95.0799 4.48216 94.934 4.43212C94.6027 4.31845 94.1705 4.21526 93.6227 4.21526C92.7793 4.21526 92.5066 4.57876 92.5066 4.94226C92.5066 5.37055 92.9609 5.64289 94.0638 6.05838C95.6078 6.60344 96.2282 7.31726 96.2282 8.48458C96.2278 9.63949 95.4119 10.6264 93.9156 10.8856Z" fill="#FFE600" fill-opacity="0.2"/>
</g>
<g clip-path="url(#clip22_21_693)">
<path d="M93.376 85.0482C88.4522 85.0482 84.4614 88.8046 84.4614 93.4384C84.4614 98.0722 88.4522 101.829 93.376 101.829C98.2998 101.829 102.291 98.0718 102.291 93.4384C102.291 88.8049 98.2994 85.0482 93.376 85.0482ZM93.9156 97.1758V98.147C93.9156 98.2985 93.7903 98.4088 93.6289 98.4088H92.9411C92.7797 98.4088 92.6498 98.2985 92.6498 98.147V97.2612C92.0166 97.2342 91.3781 97.1071 90.8947 96.9341C90.6328 96.8406 90.487 96.5766 90.5564 96.321L90.6685 95.9099C90.7077 95.7657 90.8101 95.6452 90.9502 95.5776C91.0902 95.509 91.2547 95.5021 91.4017 95.555C91.8622 95.7226 92.4061 95.8445 92.9869 95.8445C93.7263 95.8445 94.2326 95.5758 94.2326 95.0873C94.2326 94.6232 93.8175 94.33 92.8569 94.0244C91.4685 93.5848 90.5176 92.9743 90.5176 91.7895C90.5176 90.7149 91.3257 89.8722 92.7072 89.6155V88.7297C92.7072 88.5782 92.8449 88.4424 93.0063 88.4424H93.6941C93.8555 88.4424 93.9738 88.5782 93.9738 88.7297V89.5297C94.5779 89.5542 95.0139 89.6385 95.3786 89.7503C95.6544 89.835 95.8173 90.107 95.7448 90.3721L95.6462 90.7401C95.6078 90.8803 95.5093 90.9993 95.3743 91.068C95.2393 91.1366 95.0799 91.149 94.934 91.1019C94.6027 90.995 94.1705 90.8978 93.6227 90.8978C92.7793 90.8978 92.5066 91.24 92.5066 91.5821C92.5066 91.9852 92.9609 92.2415 94.0638 92.6325C95.6078 93.1455 96.2282 93.8174 96.2282 94.916C96.2278 96.003 95.4119 96.9319 93.9156 97.1758Z" fill="#FFE600" fill-opacity="0.2"/>
</g>
<g clip-path="url(#clip23_21_693)">
<path d="M93.376 171.048C88.4522 171.048 84.4614 175.039 84.4614 179.962C84.4614 184.886 88.4522 188.877 93.376 188.877C98.2998 188.877 102.291 184.885 102.291 179.962C102.291 175.039 98.2994 171.048 93.376 171.048ZM93.9156 183.933V184.965C93.9156 185.126 93.7903 185.243 93.6289 185.243H92.9411C92.7797 185.243 92.6498 185.126 92.6498 184.965V184.024C92.0166 183.995 91.3781 183.86 90.8947 183.676C90.6328 183.577 90.487 183.297 90.5564 183.025L90.6685 182.588C90.7077 182.435 90.8101 182.307 90.9502 182.235C91.0902 182.162 91.2547 182.155 91.4017 182.211C91.8622 182.389 92.4061 182.519 92.9869 182.519C93.7263 182.519 94.2326 182.233 94.2326 181.714C94.2326 181.221 93.8175 180.91 92.8569 180.585C91.4685 180.118 90.5176 179.469 90.5176 178.21C90.5176 177.069 91.3257 176.173 92.7072 175.9V174.959C92.7072 174.798 92.8449 174.654 93.0063 174.654H93.6941C93.8555 174.654 93.9738 174.798 93.9738 174.959V175.809C94.5779 175.835 95.0139 175.925 95.3786 176.044C95.6544 176.134 95.8173 176.423 95.7448 176.704L95.6462 177.095C95.6078 177.244 95.5093 177.371 95.3743 177.444C95.2393 177.517 95.0799 177.53 94.934 177.48C94.6027 177.366 94.1705 177.263 93.6227 177.263C92.7793 177.263 92.5066 177.626 92.5066 177.99C92.5066 178.418 92.9609 178.69 94.0638 179.106C95.6078 179.651 96.2282 180.365 96.2282 181.532C96.2278 182.687 95.4119 183.674 93.9156 183.933Z" fill="#FFE600" fill-opacity="0.2"/>
</g>
<g clip-path="url(#clip24_21_693)">
<path d="M93.376 27.3656C88.4522 27.3656 84.4614 31.122 84.4614 35.7558C84.4614 40.3896 88.4522 44.146 93.376 44.146C98.2998 44.146 102.291 40.3892 102.291 35.7558C102.291 31.1224 98.2994 27.3656 93.376 27.3656ZM93.9156 39.4932V40.4645C93.9156 40.616 93.7903 40.7262 93.6289 40.7262H92.9411C92.7797 40.7262 92.6498 40.616 92.6498 40.4645V39.5787C92.0166 39.5516 91.3781 39.4246 90.8947 39.2515C90.6328 39.158 90.487 38.8941 90.5564 38.6385L90.6685 38.2273C90.7077 38.0831 90.8101 37.9626 90.9502 37.8951C91.0902 37.8264 91.2547 37.8195 91.4017 37.8724C91.8622 38.04 92.4061 38.162 92.9869 38.162C93.7263 38.162 94.2326 37.8933 94.2326 37.4047C94.2326 36.9406 93.8175 36.6474 92.8569 36.3418C91.4685 35.9022 90.5176 35.2917 90.5176 34.1069C90.5176 33.0324 91.3257 32.1897 92.7072 31.933V31.0472C92.7072 30.8957 92.8449 30.7598 93.0063 30.7598H93.6941C93.8555 30.7598 93.9738 30.8957 93.9738 31.0472V31.8472C94.5779 31.8716 95.0139 31.956 95.3786 32.0677C95.6544 32.1524 95.8173 32.4244 95.7448 32.6895L95.6462 33.0575C95.6078 33.1978 95.5093 33.3168 95.3743 33.3854C95.2393 33.4541 95.0799 33.4665 94.934 33.4194C94.6027 33.3124 94.1705 33.2153 93.6227 33.2153C92.7793 33.2153 92.5066 33.5574 92.5066 33.8995C92.5066 34.3026 92.9609 34.5589 94.0638 34.95C95.6078 35.463 96.2282 36.1348 96.2282 37.2335C96.2278 38.3204 95.4119 39.2493 93.9156 39.4932Z" fill="#FFE600" fill-opacity="0.2"/>
</g>
<g clip-path="url(#clip25_21_693)">
<path d="M93.376 113.365C88.4522 113.365 84.4614 117.356 84.4614 122.28C84.4614 127.203 88.4522 131.194 93.376 131.194C98.2998 131.194 102.291 127.203 102.291 122.28C102.291 117.357 98.2994 113.365 93.376 113.365ZM93.9156 126.251V127.283C93.9156 127.444 93.7903 127.561 93.6289 127.561H92.9411C92.7797 127.561 92.6498 127.444 92.6498 127.283V126.341C92.0166 126.313 91.3781 126.178 90.8947 125.994C90.6328 125.894 90.487 125.614 90.5564 125.342L90.6685 124.906C90.7077 124.752 90.8101 124.624 90.9502 124.553C91.0902 124.48 91.2547 124.472 91.4017 124.529C91.8622 124.707 92.4061 124.836 92.9869 124.836C93.7263 124.836 94.2326 124.551 94.2326 124.032C94.2326 123.539 93.8175 123.227 92.8569 122.902C91.4685 122.435 90.5176 121.787 90.5176 120.528C90.5176 119.386 91.3257 118.491 92.7072 118.218V117.277C92.7072 117.116 92.8449 116.971 93.0063 116.971H93.6941C93.8555 116.971 93.9738 117.116 93.9738 117.277V118.127C94.5779 118.153 95.0139 118.242 95.3786 118.361C95.6544 118.451 95.8173 118.74 95.7448 119.022L95.6462 119.413C95.6078 119.562 95.5093 119.688 95.3743 119.761C95.2393 119.834 95.0799 119.847 94.934 119.797C94.6027 119.684 94.1705 119.58 93.6227 119.58C92.7793 119.58 92.5066 119.944 92.5066 120.307C92.5066 120.736 92.9609 121.008 94.0638 121.423C95.6078 121.968 96.2282 122.682 96.2282 123.85C96.2278 125.005 95.4119 125.991 93.9156 126.251Z" fill="#FFE600" fill-opacity="0.2"/>
</g>
<g clip-path="url(#clip26_21_693)">
<path d="M93.376 200.413C88.4522 200.413 84.4614 204.404 84.4614 209.328C84.4614 214.251 88.4522 218.242 93.376 218.242C98.2998 218.242 102.291 214.251 102.291 209.328C102.291 204.405 98.2994 200.413 93.376 200.413ZM93.9156 213.299V214.331C93.9156 214.492 93.7903 214.609 93.6289 214.609H92.9411C92.7797 214.609 92.6498 214.492 92.6498 214.331V213.39C92.0166 213.361 91.3781 213.226 90.8947 213.042C90.6328 212.943 90.487 212.662 90.5564 212.391L90.6685 211.954C90.7077 211.801 90.8101 211.673 90.9502 211.601C91.0902 211.528 91.2547 211.52 91.4017 211.577C91.8622 211.755 92.4061 211.884 92.9869 211.884C93.7263 211.884 94.2326 211.599 94.2326 211.08C94.2326 210.587 93.8175 210.275 92.8569 209.95C91.4685 209.483 90.5176 208.835 90.5176 207.576C90.5176 206.434 91.3257 205.539 92.7072 205.266V204.325C92.7072 204.164 92.8449 204.02 93.0063 204.02H93.6941C93.8555 204.02 93.9738 204.164 93.9738 204.325V205.175C94.5779 205.201 95.0139 205.29 95.3786 205.409C95.6544 205.499 95.8173 205.788 95.7448 206.07L95.6462 206.461C95.6078 206.61 95.5093 206.736 95.3743 206.809C95.2393 206.882 95.0799 206.895 94.934 206.845C94.6027 206.732 94.1705 206.628 93.6227 206.628C92.7793 206.628 92.5066 206.992 92.5066 207.355C92.5066 207.784 92.9609 208.056 94.0638 208.472C95.6078 209.017 96.2282 209.73 96.2282 210.898C96.2278 212.053 95.4119 213.04 93.9156 213.299Z" fill="#FFE600" fill-opacity="0.2"/>
</g>
<g clip-path="url(#clip27_21_693)">
<path d="M93.376 55.6826C88.4522 55.6826 84.4614 59.6737 84.4614 64.5971C84.4614 69.5205 88.4522 73.5117 93.376 73.5117C98.2998 73.5117 102.291 69.5201 102.291 64.5971C102.291 59.6741 98.2994 55.6826 93.376 55.6826ZM93.9156 68.5681V69.6001C93.9156 69.7611 93.7903 69.8782 93.6289 69.8782H92.9411C92.7797 69.8782 92.6498 69.7611 92.6498 69.6001V68.6589C92.0166 68.6302 91.3781 68.4952 90.8947 68.3113C90.6328 68.212 90.487 67.9315 90.5564 67.66L90.6685 67.2231C90.7077 67.0699 90.8101 66.9419 90.9502 66.8701C91.0902 66.7972 91.2547 66.7898 91.4017 66.846C91.8622 67.0241 92.4061 67.1537 92.9869 67.1537C93.7263 67.1537 94.2326 66.8682 94.2326 66.3491C94.2326 65.856 93.8175 65.5445 92.8569 65.2198C91.4685 64.7527 90.5176 64.1041 90.5176 62.8452C90.5176 61.7035 91.3257 60.8081 92.7072 60.5354V59.5942C92.7072 59.4332 92.8449 59.2889 93.0063 59.2889H93.6941C93.8555 59.2889 93.9738 59.4332 93.9738 59.5942V60.4442C94.5779 60.4702 95.0139 60.5598 95.3786 60.6785C95.6544 60.7685 95.8173 61.0575 95.7448 61.3392L95.6462 61.7302C95.6078 61.8792 95.5093 62.0057 95.3743 62.0786C95.2393 62.1515 95.0799 62.1647 94.934 62.1147C94.6027 62.001 94.1705 61.8978 93.6227 61.8978C92.7793 61.8978 92.5066 62.2613 92.5066 62.6248C92.5066 63.0531 92.9609 63.3254 94.0638 63.7409C95.6078 64.286 96.2282 64.9998 96.2282 66.1671C96.2278 67.3221 95.4119 68.309 93.9156 68.5681Z" fill="#FFE600" fill-opacity="0.2"/>
</g>
<g clip-path="url(#clip28_21_693)">
<path d="M93.376 142.731C88.4522 142.731 84.4614 146.722 84.4614 151.645C84.4614 156.569 88.4522 160.56 93.376 160.56C98.2998 160.56 102.291 156.568 102.291 151.645C102.291 146.722 98.2994 142.731 93.376 142.731ZM93.9156 155.616V156.648C93.9156 156.809 93.7903 156.926 93.6289 156.926H92.9411C92.7797 156.926 92.6498 156.809 92.6498 156.648V155.707C92.0166 155.678 91.3781 155.543 90.8947 155.359C90.6328 155.26 90.487 154.98 90.5564 154.708L90.6685 154.271C90.7077 154.118 90.8101 153.99 90.9502 153.918C91.0902 153.845 91.2547 153.838 91.4017 153.894C91.8622 154.072 92.4061 154.202 92.9869 154.202C93.7263 154.202 94.2326 153.916 94.2326 153.397C94.2326 152.904 93.8175 152.593 92.8569 152.268C91.4685 151.801 90.5176 151.152 90.5176 149.893C90.5176 148.752 91.3257 147.856 92.7072 147.584V146.642C92.7072 146.481 92.8449 146.337 93.0063 146.337H93.6941C93.8555 146.337 93.9738 146.481 93.9738 146.642V147.492C94.5779 147.518 95.0139 147.608 95.3786 147.727C95.6544 147.817 95.8173 148.106 95.7448 148.387L95.6462 148.778C95.6078 148.927 95.5093 149.054 95.3743 149.127C95.2393 149.2 95.0799 149.213 94.934 149.163C94.6027 149.049 94.1705 148.946 93.6227 148.946C92.7793 148.946 92.5066 149.309 92.5066 149.673C92.5066 150.101 92.9609 150.374 94.0638 150.789C95.6078 151.334 96.2282 152.048 96.2282 153.215C96.2278 154.37 95.4119 155.357 93.9156 155.616Z" fill="#FFE600" fill-opacity="0.2"/>
</g>
<g clip-path="url(#clip29_21_693)">
<path d="M93.376 228.73C88.4522 228.73 84.4614 232.956 84.4614 238.169C84.4614 243.382 88.4522 247.608 93.376 247.608C98.2998 247.608 102.291 243.382 102.291 238.169C102.291 232.956 98.2994 228.73 93.376 228.73ZM93.9156 242.374V243.466C93.9156 243.637 93.7903 243.761 93.6289 243.761H92.9411C92.7797 243.761 92.6498 243.637 92.6498 243.466V242.47C92.0166 242.439 91.3781 242.296 90.8947 242.102C90.6328 241.997 90.487 241.7 90.5564 241.412L90.6685 240.95C90.7077 240.787 90.8101 240.652 90.9502 240.576C91.0902 240.499 91.2547 240.491 91.4017 240.55C91.8622 240.739 92.4061 240.876 92.9869 240.876C93.7263 240.876 94.2326 240.574 94.2326 240.024C94.2326 239.502 93.8175 239.172 92.8569 238.828C91.4685 238.334 90.5176 237.647 90.5176 236.314C90.5176 235.105 91.3257 234.157 92.7072 233.868V232.872C92.7072 232.701 92.8449 232.549 93.0063 232.549H93.6941C93.8555 232.549 93.9738 232.701 93.9738 232.872V233.772C94.5779 233.799 95.0139 233.894 95.3786 234.02C95.6544 234.115 95.8173 234.421 95.7448 234.719L95.6462 235.134C95.6078 235.291 95.5093 235.425 95.3743 235.502C95.2393 235.58 95.0799 235.594 94.934 235.541C94.6027 235.42 94.1705 235.311 93.6227 235.311C92.7793 235.311 92.5066 235.696 92.5066 236.081C92.5066 236.534 92.9609 236.823 94.0638 237.263C95.6078 237.84 96.2282 238.595 96.2282 239.831C96.2278 241.054 95.4119 242.099 93.9156 242.374Z" fill="#FFE600" fill-opacity="0.2"/>
</g>
<g clip-path="url(#clip30_21_693)">
<path d="M6.32778 258.096C1.40399 258.096 -2.58679 262.087 -2.58679 267.01C-2.58679 271.934 1.40399 275.925 6.32778 275.925C11.2516 275.925 15.2424 271.933 15.2424 267.01C15.2424 262.087 11.2512 258.096 6.32778 258.096ZM6.86741 270.981V272.013C6.86741 272.174 6.74211 272.291 6.58072 272.291H5.8929C5.73151 272.291 5.60155 272.174 5.60155 272.013V271.072C4.96842 271.043 4.32987 270.908 3.84649 270.725C3.58463 270.625 3.43876 270.345 3.5082 270.073L3.62032 269.636C3.6595 269.483 3.76192 269.355 3.90197 269.283C4.04201 269.21 4.2065 269.203 4.35353 269.259C4.81402 269.437 5.35792 269.567 5.93867 269.567C6.67809 269.567 7.18436 269.281 7.18436 268.762C7.18436 268.269 6.76926 267.958 5.80871 267.633C4.42026 267.166 3.46941 266.517 3.46941 265.258C3.46941 264.117 4.27749 263.221 5.65897 262.949V262.007C5.65897 261.846 5.79669 261.702 5.95807 261.702H6.6459C6.80728 261.702 6.9256 261.846 6.9256 262.007V262.857C7.52963 262.883 7.96568 262.973 8.33035 263.092C8.60618 263.182 8.76911 263.471 8.69657 263.752L8.59803 264.143C8.55962 264.292 8.46109 264.419 8.32608 264.492C8.19108 264.565 8.03163 264.578 7.88577 264.528C7.55446 264.414 7.12229 264.311 6.57451 264.311C5.73112 264.311 5.4584 264.675 5.4584 265.038C5.4584 265.466 5.91268 265.739 7.01561 266.154C8.55962 266.699 9.17995 267.413 9.17995 268.58C9.17956 269.735 8.36371 270.722 6.86741 270.981Z" fill="#FFE600" fill-opacity="0.2"/>
</g>
<g clip-path="url(#clip31_21_693)">
<path d="M6.32778 -2C1.40399 -2 -2.58679 1.99117 -2.58679 6.91457C-2.58679 11.838 1.40399 15.8291 6.32778 15.8291C11.2516 15.8291 15.2424 11.8376 15.2424 6.91457C15.2424 1.99156 11.2512 -2 6.32778 -2ZM6.86741 10.8856V11.9175C6.86741 12.0785 6.74211 12.1957 6.58072 12.1957H5.8929C5.73151 12.1957 5.60155 12.0785 5.60155 11.9175V10.9764C4.96842 10.9476 4.32987 10.8126 3.84649 10.6288C3.58463 10.5294 3.43876 10.249 3.5082 9.97739L3.62032 9.54057C3.6595 9.38733 3.76192 9.25931 3.90197 9.18754C4.04201 9.1146 4.2065 9.10723 4.35353 9.16349C4.81402 9.34155 5.35792 9.47113 5.93867 9.47113C6.67809 9.47113 7.18436 9.1856 7.18436 8.66653C7.18436 8.17345 6.76926 7.86193 5.80871 7.53722C4.42026 7.07014 3.46941 6.4215 3.46941 5.16262C3.46941 4.0209 4.27749 3.12552 5.65897 2.8528V1.91164C5.65897 1.75065 5.79669 1.60633 5.95807 1.60633H6.6459C6.80728 1.60633 6.9256 1.75065 6.9256 1.91164V2.76163C7.52963 2.78762 7.96568 2.87724 8.33035 2.99595C8.60618 3.08595 8.76911 3.37497 8.69657 3.65662L8.59803 4.04766C8.55962 4.19663 8.46109 4.3231 8.32608 4.39604C8.19108 4.46897 8.03163 4.48216 7.88577 4.43212C7.55446 4.31845 7.12229 4.21526 6.57451 4.21526C5.73112 4.21526 5.4584 4.57876 5.4584 4.94226C5.4584 5.37055 5.91268 5.64289 7.01561 6.05838C8.55962 6.60344 9.17995 7.31726 9.17995 8.48458C9.17956 9.63949 8.36371 10.6264 6.86741 10.8856Z" fill="#FFE600" fill-opacity="0.2"/>
</g>
<g clip-path="url(#clip32_21_693)">
<path d="M6.32778 85.0482C1.40399 85.0482 -2.58679 88.8046 -2.58679 93.4384C-2.58679 98.0722 1.40399 101.829 6.32778 101.829C11.2516 101.829 15.2424 98.0718 15.2424 93.4384C15.2424 88.8049 11.2512 85.0482 6.32778 85.0482ZM6.86741 97.1758V98.147C6.86741 98.2985 6.74211 98.4088 6.58072 98.4088H5.8929C5.73151 98.4088 5.60155 98.2985 5.60155 98.147V97.2612C4.96842 97.2342 4.32987 97.1071 3.84649 96.9341C3.58463 96.8406 3.43876 96.5766 3.5082 96.321L3.62032 95.9099C3.6595 95.7657 3.76192 95.6452 3.90197 95.5776C4.04201 95.509 4.2065 95.5021 4.35353 95.555C4.81402 95.7226 5.35792 95.8445 5.93867 95.8445C6.67809 95.8445 7.18436 95.5758 7.18436 95.0873C7.18436 94.6232 6.76926 94.33 5.80871 94.0244C4.42026 93.5848 3.46941 92.9743 3.46941 91.7895C3.46941 90.7149 4.27749 89.8722 5.65897 89.6155V88.7297C5.65897 88.5782 5.79669 88.4424 5.95807 88.4424H6.6459C6.80728 88.4424 6.9256 88.5782 6.9256 88.7297V89.5297C7.52963 89.5542 7.96568 89.6385 8.33035 89.7503C8.60618 89.835 8.76911 90.107 8.69657 90.3721L8.59803 90.7401C8.55962 90.8803 8.46109 90.9993 8.32608 91.068C8.19108 91.1366 8.03163 91.149 7.88577 91.1019C7.55446 90.995 7.12229 90.8978 6.57451 90.8978C5.73112 90.8978 5.4584 91.24 5.4584 91.5821C5.4584 91.9852 5.91268 92.2415 7.01561 92.6325C8.55962 93.1455 9.17995 93.8174 9.17995 94.916C9.17956 96.003 8.36371 96.9319 6.86741 97.1758Z" fill="#FFE600" fill-opacity="0.2"/>
</g>
<g clip-path="url(#clip33_21_693)">
<path d="M6.32778 171.048C1.40399 171.048 -2.58679 175.039 -2.58679 179.962C-2.58679 184.886 1.40399 188.877 6.32778 188.877C11.2516 188.877 15.2424 184.885 15.2424 179.962C15.2424 175.039 11.2512 171.048 6.32778 171.048ZM6.86741 183.933V184.965C6.86741 185.126 6.74211 185.243 6.58072 185.243H5.8929C5.73151 185.243 5.60155 185.126 5.60155 184.965V184.024C4.96842 183.995 4.32987 183.86 3.84649 183.676C3.58463 183.577 3.43876 183.297 3.5082 183.025L3.62032 182.588C3.6595 182.435 3.76192 182.307 3.90197 182.235C4.04201 182.162 4.2065 182.155 4.35353 182.211C4.81402 182.389 5.35792 182.519 5.93867 182.519C6.67809 182.519 7.18436 182.233 7.18436 181.714C7.18436 181.221 6.76926 180.91 5.80871 180.585C4.42026 180.118 3.46941 179.469 3.46941 178.21C3.46941 177.069 4.27749 176.173 5.65897 175.9V174.959C5.65897 174.798 5.79669 174.654 5.95807 174.654H6.6459C6.80728 174.654 6.9256 174.798 6.9256 174.959V175.809C7.52963 175.835 7.96568 175.925 8.33035 176.044C8.60618 176.134 8.76911 176.423 8.69657 176.704L8.59803 177.095C8.55962 177.244 8.46109 177.371 8.32608 177.444C8.19108 177.517 8.03163 177.53 7.88577 177.48C7.55446 177.366 7.12229 177.263 6.57451 177.263C5.73112 177.263 5.4584 177.626 5.4584 177.99C5.4584 178.418 5.91268 178.69 7.01561 179.106C8.55962 179.651 9.17995 180.365 9.17995 181.532C9.17956 182.687 8.36371 183.674 6.86741 183.933Z" fill="#FFE600" fill-opacity="0.2"/>
</g>
<g clip-path="url(#clip34_21_693)">
<path d="M6.32778 27.3656C1.40399 27.3656 -2.58679 31.122 -2.58679 35.7558C-2.58679 40.3896 1.40399 44.146 6.32778 44.146C11.2516 44.146 15.2424 40.3892 15.2424 35.7558C15.2424 31.1224 11.2512 27.3656 6.32778 27.3656ZM6.86741 39.4932V40.4645C6.86741 40.616 6.74211 40.7262 6.58072 40.7262H5.8929C5.73151 40.7262 5.60155 40.616 5.60155 40.4645V39.5787C4.96842 39.5516 4.32987 39.4246 3.84649 39.2515C3.58463 39.158 3.43876 38.8941 3.5082 38.6385L3.62032 38.2273C3.6595 38.0831 3.76192 37.9626 3.90197 37.8951C4.04201 37.8264 4.2065 37.8195 4.35353 37.8724C4.81402 38.04 5.35792 38.162 5.93867 38.162C6.67809 38.162 7.18436 37.8933 7.18436 37.4047C7.18436 36.9406 6.76926 36.6474 5.80871 36.3418C4.42026 35.9022 3.46941 35.2917 3.46941 34.1069C3.46941 33.0324 4.27749 32.1897 5.65897 31.933V31.0472C5.65897 30.8957 5.79669 30.7598 5.95807 30.7598H6.6459C6.80728 30.7598 6.9256 30.8957 6.9256 31.0472V31.8472C7.52963 31.8716 7.96568 31.956 8.33035 32.0677C8.60618 32.1524 8.76911 32.4244 8.69657 32.6895L8.59803 33.0575C8.55962 33.1978 8.46109 33.3168 8.32608 33.3854C8.19108 33.4541 8.03163 33.4665 7.88577 33.4194C7.55446 33.3124 7.12229 33.2153 6.57451 33.2153C5.73112 33.2153 5.4584 33.5574 5.4584 33.8995C5.4584 34.3026 5.91268 34.5589 7.01561 34.95C8.55962 35.463 9.17995 36.1348 9.17995 37.2335C9.17956 38.3204 8.36371 39.2493 6.86741 39.4932Z" fill="#FFE600" fill-opacity="0.2"/>
</g>
<g clip-path="url(#clip35_21_693)">
<path d="M6.32778 113.365C1.40399 113.365 -2.58679 117.356 -2.58679 122.28C-2.58679 127.203 1.40399 131.194 6.32778 131.194C11.2516 131.194 15.2424 127.203 15.2424 122.28C15.2424 117.357 11.2512 113.365 6.32778 113.365ZM6.86741 126.251V127.283C6.86741 127.444 6.74211 127.561 6.58072 127.561H5.8929C5.73151 127.561 5.60155 127.444 5.60155 127.283V126.341C4.96842 126.313 4.32987 126.178 3.84649 125.994C3.58463 125.894 3.43876 125.614 3.5082 125.342L3.62032 124.906C3.6595 124.752 3.76192 124.624 3.90197 124.553C4.04201 124.48 4.2065 124.472 4.35353 124.529C4.81402 124.707 5.35792 124.836 5.93867 124.836C6.67809 124.836 7.18436 124.551 7.18436 124.032C7.18436 123.539 6.76926 123.227 5.80871 122.902C4.42026 122.435 3.46941 121.787 3.46941 120.528C3.46941 119.386 4.27749 118.491 5.65897 118.218V117.277C5.65897 117.116 5.79669 116.971 5.95807 116.971H6.6459C6.80728 116.971 6.9256 117.116 6.9256 117.277V118.127C7.52963 118.153 7.96568 118.242 8.33035 118.361C8.60618 118.451 8.76911 118.74 8.69657 119.022L8.59803 119.413C8.55962 119.562 8.46109 119.688 8.32608 119.761C8.19108 119.834 8.03163 119.847 7.88577 119.797C7.55446 119.684 7.12229 119.58 6.57451 119.58C5.73112 119.58 5.4584 119.944 5.4584 120.307C5.4584 120.736 5.91268 121.008 7.01561 121.423C8.55962 121.968 9.17995 122.682 9.17995 123.85C9.17956 125.005 8.36371 125.991 6.86741 126.251Z" fill="#FFE600" fill-opacity="0.2"/>
</g>
<g clip-path="url(#clip36_21_693)">
<path d="M6.32778 200.413C1.40399 200.413 -2.58679 204.404 -2.58679 209.328C-2.58679 214.251 1.40399 218.242 6.32778 218.242C11.2516 218.242 15.2424 214.251 15.2424 209.328C15.2424 204.405 11.2512 200.413 6.32778 200.413ZM6.86741 213.299V214.331C6.86741 214.492 6.74211 214.609 6.58072 214.609H5.8929C5.73151 214.609 5.60155 214.492 5.60155 214.331V213.39C4.96842 213.361 4.32987 213.226 3.84649 213.042C3.58463 212.943 3.43876 212.662 3.5082 212.391L3.62032 211.954C3.6595 211.801 3.76192 211.673 3.90197 211.601C4.04201 211.528 4.2065 211.52 4.35353 211.577C4.81402 211.755 5.35792 211.884 5.93867 211.884C6.67809 211.884 7.18436 211.599 7.18436 211.08C7.18436 210.587 6.76926 210.275 5.80871 209.95C4.42026 209.483 3.46941 208.835 3.46941 207.576C3.46941 206.434 4.27749 205.539 5.65897 205.266V204.325C5.65897 204.164 5.79669 204.02 5.95807 204.02H6.6459C6.80728 204.02 6.9256 204.164 6.9256 204.325V205.175C7.52963 205.201 7.96568 205.29 8.33035 205.409C8.60618 205.499 8.76911 205.788 8.69657 206.07L8.59803 206.461C8.55962 206.61 8.46109 206.736 8.32608 206.809C8.19108 206.882 8.03163 206.895 7.88577 206.845C7.55446 206.732 7.12229 206.628 6.57451 206.628C5.73112 206.628 5.4584 206.992 5.4584 207.355C5.4584 207.784 5.91268 208.056 7.01561 208.472C8.55962 209.017 9.17995 209.73 9.17995 210.898C9.17956 212.053 8.36371 213.04 6.86741 213.299Z" fill="#FFE600" fill-opacity="0.2"/>
</g>
<g clip-path="url(#clip37_21_693)">
<path d="M6.32778 55.6826C1.40399 55.6826 -2.58679 59.6737 -2.58679 64.5971C-2.58679 69.5205 1.40399 73.5117 6.32778 73.5117C11.2516 73.5117 15.2424 69.5201 15.2424 64.5971C15.2424 59.6741 11.2512 55.6826 6.32778 55.6826ZM6.86741 68.5681V69.6001C6.86741 69.7611 6.74211 69.8782 6.58072 69.8782H5.8929C5.73151 69.8782 5.60155 69.7611 5.60155 69.6001V68.6589C4.96842 68.6302 4.32987 68.4952 3.84649 68.3113C3.58463 68.212 3.43876 67.9315 3.5082 67.66L3.62032 67.2231C3.6595 67.0699 3.76192 66.9419 3.90197 66.8701C4.04201 66.7972 4.2065 66.7898 4.35353 66.846C4.81402 67.0241 5.35792 67.1537 5.93867 67.1537C6.67809 67.1537 7.18436 66.8682 7.18436 66.3491C7.18436 65.856 6.76926 65.5445 5.80871 65.2198C4.42026 64.7527 3.46941 64.1041 3.46941 62.8452C3.46941 61.7035 4.27749 60.8081 5.65897 60.5354V59.5942C5.65897 59.4332 5.79669 59.2889 5.95807 59.2889H6.6459C6.80728 59.2889 6.9256 59.4332 6.9256 59.5942V60.4442C7.52963 60.4702 7.96568 60.5598 8.33035 60.6785C8.60618 60.7685 8.76911 61.0575 8.69657 61.3392L8.59803 61.7302C8.55962 61.8792 8.46109 62.0057 8.32608 62.0786C8.19108 62.1515 8.03163 62.1647 7.88577 62.1147C7.55446 62.001 7.12229 61.8978 6.57451 61.8978C5.73112 61.8978 5.4584 62.2613 5.4584 62.6248C5.4584 63.0531 5.91268 63.3254 7.01561 63.7409C8.55962 64.286 9.17995 64.9998 9.17995 66.1671C9.17956 67.3221 8.36371 68.309 6.86741 68.5681Z" fill="#FFE600" fill-opacity="0.2"/>
</g>
<g clip-path="url(#clip38_21_693)">
<path d="M6.32778 142.731C1.40399 142.731 -2.58679 146.722 -2.58679 151.645C-2.58679 156.569 1.40399 160.56 6.32778 160.56C11.2516 160.56 15.2424 156.568 15.2424 151.645C15.2424 146.722 11.2512 142.731 6.32778 142.731ZM6.86741 155.616V156.648C6.86741 156.809 6.74211 156.926 6.58072 156.926H5.8929C5.73151 156.926 5.60155 156.809 5.60155 156.648V155.707C4.96842 155.678 4.32987 155.543 3.84649 155.359C3.58463 155.26 3.43876 154.98 3.5082 154.708L3.62032 154.271C3.6595 154.118 3.76192 153.99 3.90197 153.918C4.04201 153.845 4.2065 153.838 4.35353 153.894C4.81402 154.072 5.35792 154.202 5.93867 154.202C6.67809 154.202 7.18436 153.916 7.18436 153.397C7.18436 152.904 6.76926 152.593 5.80871 152.268C4.42026 151.801 3.46941 151.152 3.46941 149.893C3.46941 148.752 4.27749 147.856 5.65897 147.584V146.642C5.65897 146.481 5.79669 146.337 5.95807 146.337H6.6459C6.80728 146.337 6.9256 146.481 6.9256 146.642V147.492C7.52963 147.518 7.96568 147.608 8.33035 147.727C8.60618 147.817 8.76911 148.106 8.69657 148.387L8.59803 148.778C8.55962 148.927 8.46109 149.054 8.32608 149.127C8.19108 149.2 8.03163 149.213 7.88577 149.163C7.55446 149.049 7.12229 148.946 6.57451 148.946C5.73112 148.946 5.4584 149.309 5.4584 149.673C5.4584 150.101 5.91268 150.374 7.01561 150.789C8.55962 151.334 9.17995 152.048 9.17995 153.215C9.17956 154.37 8.36371 155.357 6.86741 155.616Z" fill="#FFE600" fill-opacity="0.2"/>
</g>
<g clip-path="url(#clip39_21_693)">
<path d="M6.32778 228.73C1.40399 228.73 -2.58679 232.956 -2.58679 238.169C-2.58679 243.382 1.40399 247.608 6.32778 247.608C11.2516 247.608 15.2424 243.382 15.2424 238.169C15.2424 232.956 11.2512 228.73 6.32778 228.73ZM6.86741 242.374V243.466C6.86741 243.637 6.74211 243.761 6.58072 243.761H5.8929C5.73151 243.761 5.60155 243.637 5.60155 243.466V242.47C4.96842 242.439 4.32987 242.296 3.84649 242.102C3.58463 241.997 3.43876 241.7 3.5082 241.412L3.62032 240.95C3.6595 240.787 3.76192 240.652 3.90197 240.576C4.04201 240.499 4.2065 240.491 4.35353 240.55C4.81402 240.739 5.35792 240.876 5.93867 240.876C6.67809 240.876 7.18436 240.574 7.18436 240.024C7.18436 239.502 6.76926 239.172 5.80871 238.828C4.42026 238.334 3.46941 237.647 3.46941 236.314C3.46941 235.105 4.27749 234.157 5.65897 233.868V232.872C5.65897 232.701 5.79669 232.549 5.95807 232.549H6.6459C6.80728 232.549 6.9256 232.701 6.9256 232.872V233.772C7.52963 233.799 7.96568 233.894 8.33035 234.02C8.60618 234.115 8.76911 234.421 8.69657 234.719L8.59803 235.134C8.55962 235.291 8.46109 235.425 8.32608 235.502C8.19108 235.58 8.03163 235.594 7.88577 235.541C7.55446 235.42 7.12229 235.311 6.57451 235.311C5.73112 235.311 5.4584 235.696 5.4584 236.081C5.4584 236.534 5.91268 236.823 7.01561 237.263C8.55962 237.84 9.17995 238.595 9.17995 239.831C9.17956 241.054 8.36371 242.099 6.86741 242.374Z" fill="#FFE600" fill-opacity="0.2"/>
</g>
<defs>
<clipPath id="clip0_21_693">
<rect width="17.8291" height="17.8291" fill="white" transform="translate(26.7789 258.096)"/>
</clipPath>
<clipPath id="clip1_21_693">
<rect width="17.8291" height="17.8291" fill="white" transform="translate(26.7789 -2)"/>
</clipPath>
<clipPath id="clip2_21_693">
<rect width="17.8291" height="16.7804" fill="white" transform="translate(26.7789 85.0482)"/>
</clipPath>
<clipPath id="clip3_21_693">
<rect width="17.8291" height="17.8291" fill="white" transform="translate(26.7789 171.048)"/>
</clipPath>
<clipPath id="clip4_21_693">
<rect width="17.8291" height="16.7804" fill="white" transform="translate(26.7789 27.3656)"/>
</clipPath>
<clipPath id="clip5_21_693">
<rect width="17.8291" height="17.8291" fill="white" transform="translate(26.7789 113.365)"/>
</clipPath>
<clipPath id="clip6_21_693">
<rect width="17.8291" height="17.8291" fill="white" transform="translate(26.7789 200.413)"/>
</clipPath>
<clipPath id="clip7_21_693">
<rect width="17.8291" height="17.8291" fill="white" transform="translate(26.7789 55.6826)"/>
</clipPath>
<clipPath id="clip8_21_693">
<rect width="17.8291" height="17.8291" fill="white" transform="translate(26.7789 142.731)"/>
</clipPath>
<clipPath id="clip9_21_693">
<rect width="17.8291" height="18.8779" fill="white" transform="translate(26.7789 228.73)"/>
</clipPath>
<clipPath id="clip10_21_693">
<rect width="16.7804" height="17.8291" fill="white" transform="translate(56.1445 258.096)"/>
</clipPath>
<clipPath id="clip11_21_693">
<rect width="16.7804" height="17.8291" fill="white" transform="translate(56.1445 -2)"/>
</clipPath>
<clipPath id="clip12_21_693">
<rect width="16.7804" height="16.7804" fill="white" transform="translate(56.1445 85.0482)"/>
</clipPath>
<clipPath id="clip13_21_693">
<rect width="16.7804" height="17.8291" fill="white" transform="translate(56.1445 171.048)"/>
</clipPath>
<clipPath id="clip14_21_693">
<rect width="16.7804" height="16.7804" fill="white" transform="translate(56.1445 27.3656)"/>
</clipPath>
<clipPath id="clip15_21_693">
<rect width="16.7804" height="17.8291" fill="white" transform="translate(56.1445 113.365)"/>
</clipPath>
<clipPath id="clip16_21_693">
<rect width="16.7804" height="17.8291" fill="white" transform="translate(56.1445 200.413)"/>
</clipPath>
<clipPath id="clip17_21_693">
<rect width="16.7804" height="17.8291" fill="white" transform="translate(56.1445 55.6826)"/>
</clipPath>
<clipPath id="clip18_21_693">
<rect width="16.7804" height="17.8291" fill="white" transform="translate(56.1445 142.731)"/>
</clipPath>
<clipPath id="clip19_21_693">
<rect width="16.7804" height="18.8779" fill="white" transform="translate(56.1445 228.73)"/>
</clipPath>
<clipPath id="clip20_21_693">
<rect width="17.8291" height="17.8291" fill="white" transform="translate(84.4614 258.096)"/>
</clipPath>
<clipPath id="clip21_21_693">
<rect width="17.8291" height="17.8291" fill="white" transform="translate(84.4614 -2)"/>
</clipPath>
<clipPath id="clip22_21_693">
<rect width="17.8291" height="16.7804" fill="white" transform="translate(84.4614 85.0482)"/>
</clipPath>
<clipPath id="clip23_21_693">
<rect width="17.8291" height="17.8291" fill="white" transform="translate(84.4614 171.048)"/>
</clipPath>
<clipPath id="clip24_21_693">
<rect width="17.8291" height="16.7804" fill="white" transform="translate(84.4614 27.3656)"/>
</clipPath>
<clipPath id="clip25_21_693">
<rect width="17.8291" height="17.8291" fill="white" transform="translate(84.4614 113.365)"/>
</clipPath>
<clipPath id="clip26_21_693">
<rect width="17.8291" height="17.8291" fill="white" transform="translate(84.4614 200.413)"/>
</clipPath>
<clipPath id="clip27_21_693">
<rect width="17.8291" height="17.8291" fill="white" transform="translate(84.4614 55.6826)"/>
</clipPath>
<clipPath id="clip28_21_693">
<rect width="17.8291" height="17.8291" fill="white" transform="translate(84.4614 142.731)"/>
</clipPath>
<clipPath id="clip29_21_693">
<rect width="17.8291" height="18.8779" fill="white" transform="translate(84.4614 228.73)"/>
</clipPath>
<clipPath id="clip30_21_693">
<rect width="17.8291" height="17.8291" fill="white" transform="translate(-2.58679 258.096)"/>
</clipPath>
<clipPath id="clip31_21_693">
<rect width="17.8291" height="17.8291" fill="white" transform="translate(-2.58679 -2)"/>
</clipPath>
<clipPath id="clip32_21_693">
<rect width="17.8291" height="16.7804" fill="white" transform="translate(-2.58679 85.0482)"/>
</clipPath>
<clipPath id="clip33_21_693">
<rect width="17.8291" height="17.8291" fill="white" transform="translate(-2.58679 171.048)"/>
</clipPath>
<clipPath id="clip34_21_693">
<rect width="17.8291" height="16.7804" fill="white" transform="translate(-2.58679 27.3656)"/>
</clipPath>
<clipPath id="clip35_21_693">
<rect width="17.8291" height="17.8291" fill="white" transform="translate(-2.58679 113.365)"/>
</clipPath>
<clipPath id="clip36_21_693">
<rect width="17.8291" height="17.8291" fill="white" transform="translate(-2.58679 200.413)"/>
</clipPath>
<clipPath id="clip37_21_693">
<rect width="17.8291" height="17.8291" fill="white" transform="translate(-2.58679 55.6826)"/>
</clipPath>
<clipPath id="clip38_21_693">
<rect width="17.8291" height="17.8291" fill="white" transform="translate(-2.58679 142.731)"/>
</clipPath>
<clipPath id="clip39_21_693">
<rect width="17.8291" height="18.8779" fill="white" transform="translate(-2.58679 228.73)"/>
</clipPath>
</defs>
</svg>
